<svg width="46" height="46" viewBox="0 0 46 46" xmlns="http://www.w3.org/2000/svg">
<path d="M24.7692 37.1538V46H21.2308V37.1538C21.2308 36.6846 21.4172 36.2346 21.749 35.9028C22.0808 35.571 22.5308 35.3846 23 35.3846C23.4692 35.3846 23.9192 35.571 24.251 35.9028C24.5828 36.2346 24.7692 36.6846 24.7692 37.1538ZM46 12.3846V46H28.3077V37.1538C28.3077 35.7462 27.7485 34.3961 26.7531 33.4007C25.7577 32.4054 24.4077 31.8462 23 31.8462C21.5923 31.8462 20.2423 32.4054 19.2469 33.4007C18.2515 34.3961 17.6923 35.7462 17.6923 37.1538V46H0V12.3846H12.3846V3.53846H8.84615V0H37.1538V3.53846H33.6154V12.3846H46ZM10.6154 33.6154H5.30769V37.1538H10.6154V33.6154ZM10.6154 26.5385H5.30769V30.0769H10.6154V26.5385ZM10.6154 19.4615H5.30769V23H10.6154V19.4615ZM26.5385 26.5385H19.4615V30.0769H26.5385V26.5385ZM26.5385 19.4615H19.4615V23H26.5385V19.4615ZM28.3077 8.84615H24.7692V5.30769H21.2308V8.84615H17.6923V12.3846H21.2308V15.9231H24.7692V12.3846H28.3077V8.84615ZM40.6923 33.6154H35.3846V37.1538H40.6923V33.6154ZM40.6923 26.5385H35.3846V30.0769H40.6923V26.5385ZM40.6923 19.4615H35.3846V23H40.6923V19.4615Z" fill="#F5F5F5"/>
</svg>
