<svg width="42" height="42" viewBox="0 0 42 42" fill="none" xmlns="http://www.w3.org/2000/svg">
<g filter="url(#filter0_d_443_7365)">
<circle opacity="0.8" cx="21" cy="17" r="17" fill="#955DB6"/>
<path d="M25.2779 26.2168C24.8948 26.455 24.4741 26.5013 24.0316 26.4985C22.2596 26.4888 20.4878 26.4963 18.7154 26.4932C17.8438 26.4916 17.1545 25.9012 17.0475 25.0716C17.0316 24.9469 17.0295 24.8197 17.0291 24.6938C17.0279 21.9506 17.0267 19.2074 17.0313 16.4646C17.0316 16.3393 17.0658 16.2037 17.1199 16.0899C17.3339 15.6396 17.5652 15.1975 17.7826 14.7488C17.8332 14.644 17.8979 14.6092 18.0114 14.6095C20.3432 14.6123 22.6747 14.6123 25.0061 14.6104C25.1131 14.6104 25.175 14.6431 25.2229 14.7419C25.4561 15.2196 25.6986 15.6928 25.9328 16.1701C25.9651 16.236 25.981 16.3166 25.981 16.3906C25.9838 19.1832 25.9825 21.9755 25.9853 24.7681C25.9856 25.1409 25.8902 25.482 25.6961 25.7979L25.2779 26.2168ZM18.9595 17.6832C19.4694 17.685 19.9925 17.6869 20.4741 17.6891C20.4775 17.3946 20.4806 17.0862 20.4837 16.8038C19.9822 16.8029 19.4638 16.802 18.9607 16.8013C18.9604 17.0896 18.9601 17.394 18.9595 17.6832ZM20.4912 22.2205C20.4887 21.9301 20.4859 21.6219 20.4837 21.348C19.9828 21.3464 19.4604 21.3452 18.9598 21.3439C18.9586 21.63 18.9576 21.9344 18.9567 22.2214C19.4629 22.2214 19.9809 22.2208 20.4912 22.2205ZM18.9446 19.9375C19.4691 19.9366 19.9915 19.936 20.49 19.9357C20.4881 19.6583 20.4859 19.3545 20.4844 19.088C19.98 19.088 19.4576 19.088 18.9436 19.0877C18.9439 19.3635 18.9443 19.6636 18.9446 19.9375ZM18.9526 24.4761C19.4719 24.478 19.9949 24.4804 20.4856 24.4823C20.4856 24.195 20.4859 23.8906 20.4862 23.6278C19.9837 23.6266 19.4614 23.6253 18.9505 23.6238C18.9514 23.899 18.952 24.1987 18.9526 24.4761Z" fill="white"/>
<path d="M22.8549 7.50012C23.1037 7.9031 23.2184 8.33439 23.1046 8.80329C23.0664 8.96094 23.0014 9.11548 22.9258 9.25945C22.8658 9.37419 22.8677 9.4314 22.9868 9.50572C23.5107 9.8319 23.8789 10.2909 24.0999 10.867C24.123 10.9274 24.1404 10.9902 24.1525 11.0272C22.3885 11.0269 20.6282 11.0266 18.8586 11.0262C18.9336 10.7318 19.0744 10.4267 19.2946 10.178C19.5101 9.93451 19.7601 9.7181 20.0147 9.5138C20.1236 9.42674 20.1472 9.37948 20.0794 9.25572C19.7626 8.67581 19.7818 8.09745 20.1407 7.54334C20.5959 6.83998 21.5172 6.60584 22.2595 6.99234C22.3176 7.02251 22.3764 7.05142 22.4348 7.08065L22.854 7.49981L22.8549 7.50012Z" fill="white"/>
<path d="M25.7035 12.0725C25.8969 12.3723 25.984 12.6739 25.9793 13.0007C25.9781 13.0933 25.9678 13.1869 25.952 13.2787C25.9086 13.5318 25.7615 13.6582 25.5104 13.658C22.8055 13.6577 20.1006 13.6574 17.396 13.6574C17.1516 13.6574 17.1497 13.658 17.0881 13.418C16.9768 12.9845 17.0247 12.5703 17.2393 12.1754C17.2878 12.0859 17.3469 12.0417 17.4582 12.0417C20.1575 12.0451 22.8571 12.0445 25.5561 12.0464C25.6115 12.0464 25.6674 12.0663 25.7032 12.0734L25.7035 12.0725Z" fill="white"/>
</g>
<defs>
<filter id="filter0_d_443_7365" x="0" y="0" width="42" height="42" filterUnits="userSpaceOnUse" color-interpolation-filters="sRGB">
<feFlood flood-opacity="0" result="BackgroundImageFix"/>
<feColorMatrix in="SourceAlpha" type="matrix" values="0 0 0 0 0 0 0 0 0 0 0 0 0 0 0 0 0 0 127 0" result="hardAlpha"/>
<feOffset dy="4"/>
<feGaussianBlur stdDeviation="2"/>
<feComposite in2="hardAlpha" operator="out"/>
<feColorMatrix type="matrix" values="0 0 0 0 0 0 0 0 0 0 0 0 0 0 0 0 0 0 0.25 0"/>
<feBlend mode="normal" in2="BackgroundImageFix" result="effect1_dropShadow_443_7365"/>
<feBlend mode="normal" in="SourceGraphic" in2="effect1_dropShadow_443_7365" result="shape"/>
</filter>
</defs>
</svg>
