<svg width="42" height="42" viewBox="0 0 42 42" fill="none" xmlns="http://www.w3.org/2000/svg">
<g filter="url(#filter0_d_443_7363)">
<circle opacity="0.8" cx="21" cy="17" r="17" fill="#D68D35"/>
<path d="M18.197 19.925C18.1392 19.8418 18.0813 19.7772 18.0483 19.7051C17.9222 19.426 17.7466 19.1525 17.695 18.8604C17.5938 18.2967 17.8974 17.8606 18.416 17.563C18.7279 17.3837 19.0771 17.2544 19.4179 17.1231C20.4818 16.711 21.1884 16.0382 21.395 14.9959C21.4322 14.8092 21.4239 14.617 21.4425 14.3693C21.2958 14.4414 21.2049 14.4839 21.1161 14.5301C20.2835 14.9681 19.5687 14.8591 19.0006 14.1642C18.763 13.874 18.5998 13.5339 18.4284 13.2068C18.3499 13.0571 18.2631 12.9813 18.0751 12.9961C17.9594 13.0053 17.8417 13.0035 17.728 12.9869C17.4244 12.9407 17.2446 12.6653 17.3934 12.4379C17.7962 11.828 17.7818 11.1849 17.6599 10.5195C17.507 9.68782 17.6 8.88755 18.1887 8.19078C18.699 7.58457 19.4324 7.28701 20.2298 7.11513C21.0851 6.93216 21.9259 6.93216 22.7068 7.37573C22.7646 7.40899 22.9051 7.37018 22.9795 7.32582C23.3906 7.08186 23.8182 6.91922 24.314 7.08741C25.0598 7.34061 25.3966 7.87844 25.473 8.54379C25.5081 8.84505 25.4585 9.16848 25.3697 9.46234C25.2375 9.89482 24.8987 10.1924 24.4049 10.3162C24.2335 10.3587 24.1818 10.4326 24.186 10.5824C24.2025 11.1553 24.155 11.7208 23.9277 12.2679C23.8823 12.3788 23.936 12.5304 23.967 12.6579C24.0992 13.1994 24.3574 13.7021 24.8016 14.0791C26.0019 15.0975 26.5493 16.3691 26.7807 17.7977C26.9522 18.8604 27.2104 19.9121 27.3963 20.9729C27.5161 21.6605 27.5864 22.3535 27.6587 23.0466C27.6814 23.2573 27.6525 23.4772 27.6112 23.6879C27.5905 23.7951 27.5141 23.919 27.419 23.9837C25.4172 25.3624 23.2481 26.4455 20.7318 26.8687C19.4489 27.0849 18.1701 27.0498 16.9265 26.6451C16.8253 26.6118 16.7261 26.573 16.629 26.5323C16.6104 26.5249 16.6001 26.5009 16.5588 26.4547C16.6868 26.4251 16.7922 26.3974 16.8996 26.3771C18.1123 26.1442 19.3064 25.8577 20.4137 25.3439C20.862 25.1351 21.2772 24.8689 21.7193 24.6527C22.6779 24.1814 23.7108 23.8765 24.7603 23.6159C24.8884 23.5844 25.033 23.5771 25.1404 23.5142C25.2478 23.4514 25.38 23.3386 25.3842 23.2444C25.3883 23.1372 25.2933 22.9764 25.19 22.9265C25.0288 22.8507 25.002 22.7638 25.0123 22.6289C25.0743 21.9026 24.8904 21.228 24.5847 20.5515C24.374 20.0858 24.3202 19.5628 24.2169 19.0619C24.1756 18.8586 24.1839 18.6479 24.1674 18.4409C24.1488 18.2228 24.0351 18.1175 23.8162 18.1156C23.5972 18.1119 23.4422 18.2376 23.4464 18.452C23.465 19.3077 23.5538 20.1542 23.9546 20.9489C24.2603 21.5533 24.3657 22.1798 24.2438 22.8359C24.2149 22.9912 24.1488 23.0817 23.967 23.1298C22.7295 23.4625 21.5561 23.9134 20.4653 24.5492C19.4076 25.1647 18.1846 25.4271 16.9699 25.6822C16.6559 25.7487 16.3377 25.8078 16.0175 25.8466C15.9245 25.8577 15.7634 25.8189 15.7262 25.7579C15.1106 24.7433 14.7821 23.6824 15.1622 22.531C15.5134 21.4627 16.3666 20.7826 17.4202 20.2688C17.6661 20.1486 17.9202 20.0433 18.197 19.9213V19.925Z" fill="white"/>
</g>
<defs>
<filter id="filter0_d_443_7363" x="0" y="0" width="42" height="42" filterUnits="userSpaceOnUse" color-interpolation-filters="sRGB">
<feFlood flood-opacity="0" result="BackgroundImageFix"/>
<feColorMatrix in="SourceAlpha" type="matrix" values="0 0 0 0 0 0 0 0 0 0 0 0 0 0 0 0 0 0 127 0" result="hardAlpha"/>
<feOffset dy="4"/>
<feGaussianBlur stdDeviation="2"/>
<feComposite in2="hardAlpha" operator="out"/>
<feColorMatrix type="matrix" values="0 0 0 0 0 0 0 0 0 0 0 0 0 0 0 0 0 0 0.25 0"/>
<feBlend mode="normal" in2="BackgroundImageFix" result="effect1_dropShadow_443_7363"/>
<feBlend mode="normal" in="SourceGraphic" in2="effect1_dropShadow_443_7363" result="shape"/>
</filter>
</defs>
</svg>
