<svg width="42" height="42" viewBox="0 0 42 42" fill="none" xmlns="http://www.w3.org/2000/svg">
<g filter="url(#filter0_d_443_7362)">
<circle opacity="0.8" cx="21" cy="17" r="17" fill="#3A69A0"/>
<path d="M15.2777 17.7106C15.2777 14.7253 15.2767 11.739 15.2817 8.75372C15.2817 8.56996 15.2556 8.46854 15.0497 8.40729C14.6872 8.29985 14.5065 7.94539 14.5748 7.57888C14.638 7.2425 14.9272 7.00251 15.2937 7.00151C19.0964 6.9995 22.9 6.9995 26.7027 7.00151C27.0692 7.00151 27.3734 7.26358 27.4247 7.60399C27.4799 7.97351 27.2851 8.32194 26.9246 8.41834C26.7308 8.47055 26.7147 8.57097 26.7147 8.73364C26.7177 14.6902 26.7177 20.6457 26.7167 26.6022C26.7167 27.042 26.7649 26.9918 26.3231 26.9938C25.5881 26.9968 24.8521 26.9858 24.117 26.9998C23.8931 27.0038 23.8289 26.9406 23.8289 26.7136C23.8369 24.4634 23.8349 22.2131 23.8329 19.9629C23.8329 19.2349 23.4513 18.6876 22.8147 18.5099C22.652 18.4647 22.4783 18.4436 22.3096 18.4416C21.433 18.4346 20.5564 18.4366 19.6798 18.4386C18.759 18.4416 18.1605 19.0401 18.1595 19.9639C18.1575 22.2071 18.1595 24.4493 18.1595 26.6926C18.1595 26.9928 18.1595 26.9938 17.8533 26.9938C17.0881 26.9938 16.323 26.9858 15.5578 26.9988C15.3309 27.0028 15.2716 26.9346 15.2716 26.7106C15.2787 23.7103 15.2767 20.7099 15.2767 17.7096L15.2777 17.7106ZM20.9942 9.88638C20.6227 9.88939 20.3254 10.1886 20.3033 10.5933C20.2933 10.7781 20.3124 10.9658 20.2923 11.1486C20.2863 11.2058 20.1989 11.2922 20.1407 11.3002C19.973 11.3213 19.8003 11.3052 19.6296 11.3102C19.1958 11.3223 18.8815 11.6135 18.8785 12.0031C18.8755 12.3887 19.1938 12.6869 19.6246 12.704C19.8374 12.712 20.1407 12.6437 20.2401 12.7552C20.3546 12.8837 20.2913 13.1729 20.3013 13.3918C20.3214 13.8095 20.6106 14.1198 20.9912 14.1268C21.3748 14.1339 21.681 13.8156 21.6961 13.3868C21.7021 13.2161 21.7021 13.0454 21.6971 12.8747C21.6941 12.7512 21.7453 12.701 21.8688 12.704C22.0395 12.709 22.2102 12.709 22.3809 12.703C22.8087 12.6879 23.128 12.3817 23.1209 11.9981C23.1129 11.6155 22.8056 11.3263 22.3859 11.3112C22.2373 11.3062 22.0887 11.3002 21.9411 11.3112C21.7613 11.3253 21.68 11.2671 21.6961 11.0763C21.7091 10.9216 21.7041 10.764 21.6961 10.6094C21.676 10.1936 21.3727 9.88337 20.9962 9.88638H20.9942Z" fill="white"/>
<path d="M28.1134 20.5684C28.1134 18.5199 28.1134 16.4715 28.1134 14.4231C28.1134 14.1309 28.1154 14.1158 28.4056 14.1339C28.7882 14.157 29.1858 14.1479 29.5463 14.2574C30.4219 14.5225 30.9943 15.3479 30.9953 16.2636C30.9983 19.5813 30.9973 22.8989 30.9953 26.2156C30.9953 26.7026 30.7061 26.9918 30.2211 26.9938C29.6045 26.9958 28.989 26.9868 28.3735 26.9988C28.1696 27.0028 28.1094 26.9396 28.1094 26.7357C28.1164 24.6803 28.1134 22.6238 28.1134 20.5684Z" fill="white"/>
<path d="M13.8829 20.5654C13.8829 22.6078 13.8829 24.6502 13.8829 26.6926C13.8829 26.9938 13.8829 26.9948 13.5777 26.9948C12.9832 26.9948 12.3888 26.9958 11.7954 26.9948C11.2943 26.9938 11.0011 26.7066 11.0011 26.2126C11.0011 22.8929 10.9981 19.5733 11.0021 16.2536C11.0031 15.0918 11.956 14.1429 13.1148 14.1319C13.3005 14.1299 13.4863 14.1399 13.6721 14.1289C13.8418 14.1188 13.888 14.1891 13.886 14.3498C13.8789 14.9141 13.8829 15.4784 13.8829 16.0427C13.8829 17.55 13.8829 19.0582 13.8829 20.5654Z" fill="white"/>
<path d="M22.4391 23.4262C22.4391 24.5247 22.4341 25.6232 22.4432 26.7207C22.4452 26.9316 22.3889 27.0019 22.171 26.9989C21.3848 26.9868 20.5976 26.9888 19.8113 26.9979C19.6256 26.9999 19.5513 26.9577 19.5523 26.7528C19.5593 24.5267 19.5583 22.3005 19.5533 20.0734C19.5533 19.8926 19.6035 19.8283 19.7912 19.8304C20.5925 19.8394 21.3948 19.8404 22.1961 19.8304C22.399 19.8273 22.4442 19.8986 22.4432 20.0874C22.4361 21.201 22.4391 22.3136 22.4391 23.4272V23.4262Z" fill="white"/>
</g>
<defs>
<filter id="filter0_d_443_7362" x="0" y="0" width="42" height="42" filterUnits="userSpaceOnUse" color-interpolation-filters="sRGB">
<feFlood flood-opacity="0" result="BackgroundImageFix"/>
<feColorMatrix in="SourceAlpha" type="matrix" values="0 0 0 0 0 0 0 0 0 0 0 0 0 0 0 0 0 0 127 0" result="hardAlpha"/>
<feOffset dy="4"/>
<feGaussianBlur stdDeviation="2"/>
<feComposite in2="hardAlpha" operator="out"/>
<feColorMatrix type="matrix" values="0 0 0 0 0 0 0 0 0 0 0 0 0 0 0 0 0 0 0.25 0"/>
<feBlend mode="normal" in2="BackgroundImageFix" result="effect1_dropShadow_443_7362"/>
<feBlend mode="normal" in="SourceGraphic" in2="effect1_dropShadow_443_7362" result="shape"/>
</filter>
</defs>
</svg>
