<svg width="34" height="34" viewBox="0 0 34 34" fill="none" xmlns="http://www.w3.org/2000/svg">
<circle opacity="0.8" cx="17" cy="17" r="17" fill="#955DB6"/>
<path d="M12.2927 10.5337C12.4571 10.738 12.5972 10.9296 12.7495 11.102C13.2002 11.6192 14.0163 11.8682 14.6862 11.4468C15.009 11.2424 15.3623 11.0764 15.7094 10.9104C15.7886 10.8721 15.9165 10.8849 15.9896 10.9296C16.6535 11.351 17.3112 11.3574 17.9751 10.9296C18.0482 10.8849 18.1761 10.8721 18.2552 10.9104C18.5841 11.0636 18.9069 11.2297 19.2175 11.4148C20.0276 11.9001 20.7645 11.5681 21.2456 11.0381C21.3857 10.8849 21.5075 10.7061 21.6781 10.489C22.147 10.8657 22.6464 11.2169 23.091 11.6383C24.3091 12.775 25.1557 14.167 25.6003 15.8208C25.649 15.9996 25.7221 16.0635 25.8987 16.0507C26.5869 16.006 27.1899 16.204 27.6162 16.8042C28.0486 17.4044 28.1156 18.0685 27.8172 18.7454C27.5066 19.4542 26.9463 19.8054 26.2032 19.8501C25.783 19.8756 25.7891 19.8756 25.6734 20.3035C24.8085 23.4834 22.8535 25.5907 19.8997 26.657C16.0688 28.0363 11.8116 26.5549 9.52156 23.1131C8.91252 22.2 8.48619 21.1974 8.25475 20.1119C8.21212 19.9012 8.13903 19.8437 7.94414 19.8501C7.04275 19.8501 6.34844 19.352 6.09265 18.5411C5.70895 17.3151 6.56161 16.0954 7.82842 16.0507C8.2852 16.038 8.27911 16.0316 8.42528 15.5782C9.10132 13.4327 10.3681 11.7852 12.2013 10.6039C12.2318 10.5847 12.2683 10.5656 12.2988 10.5464L12.2927 10.5337ZM16.958 21.057C15.9226 21.057 14.8811 21.0697 13.8458 21.057C13.3342 21.0442 13.2672 21.3251 13.3342 21.721C13.4316 22.3149 13.7483 22.7683 14.2051 23.1067C15.8921 24.3646 17.8959 24.4157 19.6317 23.1961C20.1615 22.8257 20.5391 22.3277 20.6305 21.6317C20.6853 21.2294 20.5513 21.0633 20.1615 21.057C19.0957 21.057 18.0238 21.057 16.958 21.057ZM13.322 17.9664C13.9371 17.9664 14.4244 17.4491 14.4183 16.8042C14.4183 16.1848 13.9128 15.6612 13.322 15.6548C12.719 15.6484 12.2135 16.1784 12.2135 16.817C12.2135 17.4619 12.7008 17.9728 13.3159 17.9664H13.322ZM20.6305 17.9664C21.2456 17.9664 21.7451 17.4683 21.7511 16.8234C21.7511 16.1912 21.2517 15.6548 20.6488 15.6548C20.0519 15.6548 19.5525 16.172 19.5464 16.7914C19.5464 17.4428 20.0154 17.9536 20.6305 17.96V17.9664Z" fill="white"/>
<path d="M17.9443 9.89511C17.9016 9.95897 17.8712 10.0037 17.8346 10.0484C17.384 10.6422 16.5861 10.655 16.1354 10.0548C16.038 9.92704 15.971 9.91427 15.837 9.98451C15.3376 10.2591 14.826 10.5145 14.3327 10.7891C13.9855 10.9806 13.6627 10.9487 13.3825 10.6805C12.2802 9.63969 12.3533 8.13272 13.4678 7.16851C13.7297 6.93863 14.0342 6.96417 14.3266 7.12381C14.8747 7.41754 15.4289 7.70489 15.9953 8.00501C16.2268 7.62826 16.5313 7.37284 16.9759 7.37284C17.4144 7.37284 17.7189 7.61549 17.9565 7.99862C18.4681 7.73043 18.9796 7.4814 19.473 7.20043C20.0455 6.86839 20.4231 6.95778 20.8555 7.53887C21.5924 8.52223 21.5072 9.74825 20.6484 10.5847C20.283 10.9423 19.9967 10.987 19.5521 10.7508C19.0223 10.4698 18.4924 10.1952 17.9382 9.9015L17.9443 9.89511Z" fill="white"/>
</svg>
