<svg width="42" height="42" viewBox="0 0 42 42" fill="none" xmlns="http://www.w3.org/2000/svg">
<g filter="url(#filter0_d_443_7364)">
<circle opacity="0.8" cx="21" cy="17" r="17" fill="#BF672B"/>
<path d="M23.7425 23.0825C23.6511 23.0892 23.5826 23.0973 23.5141 23.0989C22.8427 23.1147 22.2463 22.8937 21.6988 22.5211C21.4506 22.3521 21.2216 22.1587 21.0395 21.9193C20.9335 21.7797 20.8447 21.6255 20.7613 21.4708C20.607 21.1842 20.4721 20.8865 20.309 20.605C20.2296 20.468 20.1171 20.3433 19.9978 20.2376C19.664 19.9414 19.2374 20.0224 19.0339 20.4188C18.8363 20.8033 18.8515 21.2032 19.0017 21.5972C19.054 21.7342 19.1414 21.8595 19.2226 21.9837C19.3176 22.1287 19.4321 22.2615 19.5223 22.4091C19.6558 22.6276 19.6238 22.7507 19.4116 22.8944C19.1332 23.083 18.8171 23.1761 18.4904 23.2272C18.1809 23.2754 17.8681 23.3025 17.5564 23.3369C17.4842 23.345 17.4236 23.3664 17.4035 23.4432C17.3821 23.5246 17.4267 23.5752 17.4911 23.616C17.7386 23.7728 18.0137 23.8637 18.291 23.9468C18.7086 24.0719 19.1321 24.1765 19.5672 24.2162C19.773 24.235 19.9812 24.2284 20.1884 24.2297C20.4811 24.2316 20.7738 24.2237 21.0663 24.2317C21.4634 24.2425 21.8332 24.3464 22.1365 24.6157C22.4211 24.8685 22.564 25.1904 22.5409 25.574C22.5289 25.7774 22.4211 25.9422 22.2865 26.0887C22.0575 26.338 21.7725 26.5076 21.4689 26.647C20.7719 26.9671 20.0417 27.0602 19.283 26.9645C18.0774 26.8123 16.9649 26.4103 15.9555 25.7309C15.7865 25.6172 15.6237 25.4924 15.4664 25.3629C15.0715 25.0379 14.8535 24.6032 14.7254 24.1194C14.5789 23.5656 14.5582 23.0023 14.6031 22.4327C14.6329 22.0534 14.7401 21.6981 14.8849 21.3506C15.3956 20.126 15.9852 18.9392 16.6263 17.7786C16.9159 17.2544 17.3146 16.8192 17.8081 16.4751C18.2276 16.1826 18.6927 16.0317 19.2053 16.0316C20.6927 16.0306 22.1804 16.0411 23.6677 16.0235C24.2534 16.0166 24.7537 16.202 25.2106 16.5445C25.665 16.8849 26.0343 17.3063 26.3416 17.7791C26.8942 18.6293 27.3835 19.5132 27.7069 20.4799C27.8232 20.8275 27.9103 21.182 27.9368 21.5489C27.9782 22.1222 27.8335 22.6502 27.53 23.133C26.9249 24.0956 26.1172 24.8388 25.0828 25.3183C24.5611 25.5601 24.0251 25.5489 23.4976 25.3135C23.4394 25.2875 23.3827 25.2566 23.3288 25.2226C22.9794 25.002 22.8609 24.6819 22.9779 24.2851C23.0551 24.0241 23.1918 23.794 23.3507 23.5769C23.4515 23.4393 23.5618 23.3089 23.6679 23.1752C23.6878 23.1501 23.7081 23.1253 23.7422 23.0828L23.7425 23.0825ZM23.3653 18.6723C22.3008 18.6734 21.4255 19.5503 21.4282 20.6133C21.431 21.6773 22.3 22.5445 23.3635 22.5443C24.4352 22.5441 25.3132 21.6682 25.3098 20.6027C25.3063 19.5344 24.4367 18.6712 23.3653 18.6721V18.6723Z" fill="white"/>
<path fill-rule="evenodd" clip-rule="evenodd" d="M18.1636 7C18.4986 7.06667 18.8256 7.157 19.1218 7.33456C19.1618 7.35858 19.2009 7.38409 19.2468 7.41402L19.2468 7.41402C19.2709 7.42971 19.2968 7.4466 19.3256 7.46513L19.2565 7.50333C19.2182 7.52461 19.1864 7.54229 19.1541 7.55909C17.9376 8.19504 17.1944 9.17885 16.9799 10.5421C16.953 10.7129 16.8965 10.8238 16.755 10.933C15.7604 11.7009 15.8819 13.231 16.978 13.8485C17.0062 13.8643 17.0341 13.8804 17.0619 13.8964L17.0619 13.8964L17.1031 13.9202C16.801 14.63 15.1576 15.1784 14 14.9458C14.0379 14.8981 14.0747 14.8509 14.1111 14.8043L14.1111 14.8043C14.1903 14.7029 14.2672 14.6043 14.3484 14.5095C14.7016 14.097 14.9899 13.6495 15.0921 13.1063C15.1315 12.8968 15.1648 12.6828 15.1667 12.4704C15.1747 11.5392 15.1795 10.6078 15.1679 9.67663C15.1517 8.36759 16.1466 7.20035 17.4214 7.01762C17.4309 7.01631 17.4399 7.01135 17.4488 7.00641C17.4529 7.00415 17.457 7.0019 17.4611 7H18.1636ZM19.3151 11.3869H19.3152C19.6598 11.3916 20.0046 11.3963 20.3479 11.3771C20.932 11.3442 21.4804 11.1563 22.006 10.9003C22.5171 10.6515 23.0566 10.5236 23.6276 10.5325C23.9689 10.5378 24.3102 10.5356 24.6515 10.5321C24.7512 10.5311 24.8061 10.5444 24.8237 10.6668C24.8923 11.1418 24.8179 11.5988 24.6691 12.0462C24.3436 13.0257 23.794 13.8483 22.9409 14.4473C22.3929 14.8321 21.7815 15.0235 21.1094 14.9649C20.451 14.9074 19.8774 14.6294 19.3979 14.1867C19.1702 13.9765 18.97 13.7359 18.7704 13.4958L18.7703 13.4958C18.7145 13.4287 18.6587 13.3616 18.6024 13.2953C18.5405 13.2226 18.4893 13.1775 18.388 13.1818C18.2387 13.1883 18.089 13.1868 17.9393 13.1852H17.9393C17.8939 13.1847 17.8484 13.1843 17.803 13.184C17.3132 13.1816 16.9265 12.7901 16.9265 12.298C16.9265 11.8078 17.3161 11.4138 17.8041 11.4121C18.0443 11.4113 18.2845 11.4115 18.5247 11.4117H18.5247L18.8573 11.4119V11.3833V11.3828C19.0098 11.3828 19.1625 11.3848 19.3151 11.3869ZM23.7874 9.67161H24.4707L24.4708 9.67179L24.5011 9.62222C24.4538 9.56032 24.4084 9.49663 24.363 9.43294C24.2646 9.29492 24.1662 9.15688 24.0492 9.03705C22.9948 7.95634 21.7167 7.63008 20.2764 8.01714C19.1513 8.3194 18.341 9.01476 17.9426 10.138C17.9126 10.2226 17.8925 10.3108 17.8714 10.4034C17.8612 10.4483 17.8507 10.4943 17.8388 10.5414C17.8636 10.5427 17.8856 10.544 17.9055 10.5452C17.9444 10.5475 17.9759 10.5494 18.0073 10.5494C18.1826 10.5495 18.3579 10.5499 18.5332 10.5503C19.0357 10.5516 19.5382 10.5528 20.0406 10.5459C20.253 10.543 20.4715 10.524 20.6759 10.4694C20.9797 10.3881 21.2857 10.2946 21.5688 10.1601C22.2735 9.82533 23.0119 9.67127 23.7874 9.67161Z" fill="white"/>
</g>
<defs>
<filter id="filter0_d_443_7364" x="0" y="0" width="42" height="42" filterUnits="userSpaceOnUse" color-interpolation-filters="sRGB">
<feFlood flood-opacity="0" result="BackgroundImageFix"/>
<feColorMatrix in="SourceAlpha" type="matrix" values="0 0 0 0 0 0 0 0 0 0 0 0 0 0 0 0 0 0 127 0" result="hardAlpha"/>
<feOffset dy="4"/>
<feGaussianBlur stdDeviation="2"/>
<feComposite in2="hardAlpha" operator="out"/>
<feColorMatrix type="matrix" values="0 0 0 0 0 0 0 0 0 0 0 0 0 0 0 0 0 0 0.25 0"/>
<feBlend mode="normal" in2="BackgroundImageFix" result="effect1_dropShadow_443_7364"/>
<feBlend mode="normal" in="SourceGraphic" in2="effect1_dropShadow_443_7364" result="shape"/>
</filter>
</defs>
</svg>
