<svg width="38" height="38" viewBox="0 0 38 38" fill="none" xmlns="http://www.w3.org/2000/svg">
<path d="M15.3764 5.17969C15.3764 4.33638 15.7095 3.52762 16.3025 2.93131C16.8955 2.335 17.6998 2 18.5384 2C19.377 2 20.1812 2.335 20.7742 2.93131C21.3672 3.52762 21.7004 4.33638 21.7004 5.17969C21.7004 6.02299 21.3672 6.83176 20.7742 7.42807C20.1812 8.02437 19.377 8.35938 18.5384 8.35938C17.6998 8.35938 16.8955 8.02437 16.3025 7.42807C15.7095 6.83176 15.3764 6.02299 15.3764 5.17969ZM18.0114 24.401V32.8802C18.0114 34.0527 17.0694 35 15.9034 35C14.7374 35 13.7954 34.0527 13.7954 32.8802V18.1013L11.9114 21.2545C11.3119 22.2548 10.0142 22.5793 9.01949 21.9765C8.02478 21.3737 7.70199 20.0687 8.30145 19.0684L12.1419 12.6428C13.2882 10.7284 15.3435 9.55588 17.5634 9.55588H19.5199C21.7399 9.55588 23.7952 10.7284 24.9414 12.6428L28.7819 19.0684C29.3813 20.0687 29.0586 21.3737 28.0638 21.9765C27.0691 22.5793 25.7714 22.2548 25.1719 21.2545L23.2813 18.1013V32.8802C23.2813 34.0527 22.3393 35 21.1734 35C20.0074 35 19.0654 34.0527 19.0654 32.8802V24.401H18.0114Z" fill="#4B96FA"/>
</svg>
