<svg width="64" height="64" viewBox="0 0 64 64" fill="none" xmlns="http://www.w3.org/2000/svg">
<path d="M45.498 20.1654C46.3618 21.1137 47.1412 22.2594 47.5678 23.6026C48.89 27.762 47.5754 32.6374 42.6321 35.2484C40.5291 36.358 38.2618 36.9203 35.916 37.2022C32.7637 37.5806 29.6069 37.5143 26.4592 37.1841C23.1154 36.8344 19.8516 36.15 16.9435 34.3379C13.648 32.2831 12.0666 29.2454 11.9159 25.4087C11.8526 23.8001 12.0772 22.2278 12.4737 20.672C12.6335 20.0418 12.9154 19.5368 13.5923 19.4056C14.2375 19.2805 14.6807 19.6182 15.0908 20.0946C17.6822 23.0991 20.94 24.7996 24.9366 24.7559C27.6547 24.7258 30.1873 23.8936 32.3974 22.2459C33.4286 21.477 34.2456 20.5303 34.5487 19.2383C34.5999 19.0197 34.606 18.7287 34.5019 18.5448C33.2145 16.2624 33.2989 13.8895 34.107 11.5166C35.1894 8.34175 37.6633 6.6925 41.0959 6.73772C43.9859 6.77692 46.7568 8.86487 47.6673 11.7307C47.7925 12.1227 47.9719 12.2086 48.3427 12.2041C49.6407 12.1845 50.9387 12.192 52.2367 12.1981C53.2754 12.2026 53.6025 12.6202 53.3568 13.6121C53.2076 14.2121 53.0779 14.8197 52.8925 15.4076C52.4146 16.9287 51.5266 17.5679 49.9452 17.5679C49.1734 17.5679 48.403 17.5604 47.6312 17.5755C47.4864 17.5785 47.2844 17.6343 47.2075 17.7383C46.6362 18.5192 46.0919 19.3182 45.501 20.1639L45.498 20.1654ZM40.8246 12.1543C39.8673 12.1438 39.0185 12.979 39.0065 13.9408C38.9944 14.8935 39.8356 15.7498 40.7944 15.7619C41.7472 15.774 42.602 14.9327 42.614 13.9739C42.6261 13.0212 41.7834 12.1649 40.8246 12.1543Z" fill="white"/>
<path d="M38.5375 52.0711C40.4174 52.2384 42.2551 52.3485 44.0777 52.5776C46.7386 52.9123 49.3918 53.3103 52.0406 53.7264C52.9542 53.8696 53.4411 54.5555 53.4502 55.4962C53.4562 56.0751 53.4502 56.654 53.4502 57.2631H10.1218C10.1218 56.5364 10.078 55.8249 10.1338 55.1209C10.1926 54.3882 10.7896 53.8153 11.6067 53.7053C15.1208 53.2319 18.6364 52.7751 22.1535 52.3319C23.0836 52.2143 24.0228 52.1676 25.0163 52.0831C24.05 49.8912 24.6198 48.0565 26.3279 46.4841C26.0339 46.1494 25.7279 45.8479 25.4761 45.5057C24.4585 44.1248 24.2595 42.6369 24.944 41.0464C25.0676 40.76 25.2048 40.6348 25.5756 40.6725C27.0138 40.8188 28.4565 40.9032 30.0591 41.0223C29.9053 41.2002 29.8239 41.3509 29.6973 41.4308C29.4138 41.6117 29.0867 41.7263 28.8184 41.9253C27.9832 42.5419 27.9832 43.1419 28.8003 43.7766C29.5088 44.3268 30.3455 44.5364 31.2123 44.6178C32.4199 44.7308 33.5807 44.5514 34.6149 43.8791C35.6189 43.2248 35.6098 42.4906 34.6149 41.8273C34.3827 41.672 34.1053 41.5861 33.8701 41.4338C33.7345 41.3464 33.641 41.1941 33.4902 41.0268C35.0611 40.8369 36.4933 40.6499 37.93 40.5067C38.1018 40.4901 38.3807 40.6665 38.4682 40.8293C39.3244 42.4273 39.1646 43.971 38.1335 45.4334C37.8862 45.7846 37.5757 46.0907 37.2455 46.4751C37.9812 47.1866 38.6249 47.9992 38.8873 49.047C39.1496 50.0902 38.9777 51.0867 38.539 52.0681L38.5375 52.0711ZM31.7731 51.8887C32.8194 51.8314 33.8385 51.6746 34.7098 51.0414C35.5857 50.4053 35.5797 49.757 34.7174 49.1073C33.2566 48.0082 30.3184 48.0067 28.85 49.1057C27.9802 49.757 27.9726 50.3947 28.847 51.0354C29.7169 51.6746 30.7344 51.8269 31.7747 51.8872L31.7731 51.8887Z" fill="white"/>
</svg>
