<svg width="38" height="38" viewBox="0 0 38 38" fill="none" xmlns="http://www.w3.org/2000/svg">
<path d="M18.5676 2C19.4085 2 20.215 2.33582 20.8096 2.9336C21.4043 3.53137 21.7383 4.34212 21.7383 5.1875C21.7383 6.03288 21.4043 6.84363 20.8096 7.4414C20.215 8.03917 19.4085 8.375 18.5676 8.375C17.7266 8.375 16.9201 8.03917 16.3255 7.4414C15.7309 6.84363 15.3968 6.03288 15.3968 5.1875C15.3968 4.34212 15.7309 3.53137 16.3255 2.9336C16.9201 2.33582 17.7266 2 18.5676 2ZM13.8115 26.5H12.6356C11.9156 26.5 11.407 25.7895 11.6316 25.0988L14.1616 17.4754L11.9222 21.2207C11.3211 22.2234 10.0198 22.5488 9.02231 21.9445C8.02485 21.3402 7.70117 20.032 8.30229 19.0293L11.843 13.1059C13.1839 10.868 15.5884 9.5 18.1844 9.5H18.9507C21.5467 9.5 23.9512 10.868 25.2922 13.1059L28.8328 19.0293C29.434 20.032 29.1103 21.3402 28.1128 21.9445C27.1154 22.5488 25.814 22.2234 25.2129 21.2207L22.9736 17.482L25.5036 25.0988C25.7348 25.7895 25.2195 26.5 24.4995 26.5H23.3237V32.875C23.3237 34.0504 22.3791 35 21.2099 35C20.0406 35 19.096 34.0504 19.096 32.875V26.5H18.0391V32.875C18.0391 34.0504 17.0945 35 15.9253 35C14.7561 35 13.8115 34.0504 13.8115 32.875V26.5Z" fill="#F1C40F"/>
</svg>
